<?xml version="1.0" encoding="UTF-8"?>
<svg width="31px" height="33px" viewBox="0 0 31 33" version="1.1" xmlns="http://www.w3.org/2000/svg" xmlns:xlink="http://www.w3.org/1999/xlink">
    <!-- Generator: Sketch 46.2 (44496) - http://www.bohemiancoding.com/sketch -->
    <title>Shape</title>
    <desc>Created with Sketch.</desc>
    <defs>
        <linearGradient x1="28.2011753%" y1="15.3472608%" x2="103.371507%" y2="84.6528771%" id="linearGradient-1">
            <stop stop-color="#00AAE4" offset="0%"></stop>
            <stop stop-color="#006097" offset="100%"></stop>
        </linearGradient>
    </defs>
    <g id="Page-1" stroke="none" stroke-width="1" fill="none" fill-rule="evenodd">
        <g id="Desktop-HD" transform="translate(-1114.000000, -1564.000000)" fill-rule="nonzero" fill="url(#linearGradient-1)">
            <g id="Work" transform="translate(-52.000000, 0.000000)">
                <g id="First-part" transform="translate(409.000000, 152.000000)">
                    <g id="Services" transform="translate(1.000000, 1395.000000)">
                        <g id="item" transform="translate(727.000000, 3.000000)">
                            <path d="M56.1012096,33.9916911 C54.9507893,33.3274431 53.6552726,33.134919 52.3720334,33.0901058 C51.2953997,33.0525091 49.6891107,32.3625903 49.6891107,30.4040488 C49.6891107,28.9448132 50.8720363,27.7704192 52.3725838,27.7180224 C53.655716,27.6732092 54.9511104,27.4804404 56.1012096,26.8164218 C58.9573544,25.1674407 60.2172736,21.7058146 59.0892691,18.6067328 C57.9612646,15.507651 54.7709876,13.6658083 51.5231191,14.2385673 C48.2752507,14.8113264 45.9074399,17.6333334 45.907553,20.931318 C45.907553,22.2479952 46.375852,23.4596648 46.9733923,24.5834662 C47.4759549,25.5286569 47.7302176,27.2829473 46.0065672,28.2780578 C44.7243676,29.01834 43.1241637,28.5495976 42.3248798,27.27041 C41.6497305,26.1899693 40.8347138,25.1776276 39.6936506,24.5187156 C36.8375538,22.8697364 33.2097877,23.5094022 31.089909,26.0357703 C28.9700303,28.5621384 28.9700303,32.2458674 31.089909,34.7722355 C33.2097877,37.2986037 36.8375538,37.9382695 39.6936506,36.2892903 C40.8343927,35.6306229 41.6494859,34.6189387 42.3242071,33.5391554 C42.8782643,32.6524773 44.2620314,31.5222543 46.006506,32.5301774 C47.2867486,33.2698785 47.68253,34.8905396 46.972796,36.2254417 C46.3753475,37.349075 45.9076447,38.5604847 45.9076447,39.8769325 C45.9076499,43.1748353 48.2754775,45.9966987 51.5232776,46.5693744 C54.7710776,47.1420501 57.961243,45.3002122 59.0891986,42.2011997 C60.2171542,39.1021872 58.9572707,35.6406536 56.1012096,33.9916911 Z" id="Shape"></path>
                        </g>
                    </g>
                </g>
            </g>
        </g>
    </g>
</svg>