<?xml version="1.0" encoding="UTF-8"?>
<svg xmlns="http://www.w3.org/2000/svg" width="48px" height="48px"><path fill="#699ff6" d="M8.4 44.24a3.96 3.96 0 0 0 4.41.52A23.89 23.89 0 0 1 24 42c4.04 0 7.85 1 11.19 2.76 1.43.76 3.19.52 4.42-.53a23.95 23.95 0 0 0 8.33-19.96 24.1 24.1 0 0 0-22.4-22.22 24 24 0 0 0-17.13 42.2zm2.48-4.6l-.41-.41A19.24 19.24 0 0 1 5.08 23.9c.12-.82.18-1.7.4-2.5l.3-1.23.43-1.2c.12-.42.3-.82.48-1.2.19-.4.36-.8.56-1.18.44-.75.84-1.53 1.38-2.22a19.52 19.52 0 0 1 7.85-6.53c.76-.35 1.53-.63 2.28-.89.77-.19 1.51-.47 2.27-.57.75-.12 1.48-.27 2.2-.3.7-.04 1.43-.1 2.06-.07a20.12 20.12 0 0 1 8.62 2.15 1.71 1.71 0 1 1-1.5 3.08l-.04-.03-.06-.03-.47-.25a17.93 17.93 0 0 0-3.62-1.35 17 17 0 0 0-3.02-.45c-.6-.05-1.16-.02-1.78 0-.6 0-1.23.1-1.87.18-.65.06-1.29.28-1.96.41a17.7 17.7 0 0 0-5.77 2.88c-1.17.94-2.3 1.99-3.2 3.23-.51.58-.87 1.26-1.3 1.9-.19.33-.35.68-.52 1.02-.18.33-.35.68-.47 1.03l-.41 1.06-.3 1.08c-.24.72-.3 1.42-.44 2.12a17.25 17.25 0 0 0 .74 7.92 17.58 17.58 0 0 0 3.65 6.22l.4.44a.75.75 0 0 1-1.09 1.03z"></path><path fill="#fff" d="M38.85 40.85a1 1 0 0 1-1.41 0l-2.13-2.12a1 1 0 0 1 1.42-1.42l2.12 2.13a1 1 0 0 1 0 1.4zm3.34-4.35a1 1 0 0 1-1.37.37l-2.6-1.5a1 1 0 0 1 1-1.74l2.6 1.5a1 1 0 0 1 .37 1.37zm2.1-5.06a1 1 0 0 1-1.23.7l-2.9-.77a1 1 0 0 1 .52-1.94l2.9.78a1 1 0 0 1 .7 1.23zM45 26a1 1 0 0 1-1 1h-3a1 1 0 0 1 0-2h3a1 1 0 0 1 1 1zm-.72-5.44a1 1 0 0 1-.7 1.23l-2.9.78a1 1 0 1 1-.52-1.94l2.9-.77a1 1 0 0 1 1.22.7zm-2.1-5.06a1 1 0 0 1-.36 1.37l-2.6 1.5a1 1 0 0 1-1-1.74l2.6-1.5a1 1 0 0 1 1.37.37zm-19.84 8.84L38.1 10.4a1.06 1.06 0 0 1 1.5 1.5L25.66 27.66a2.35 2.35 0 0 1-3.32-3.32z"></path></svg>
