<?xml version="1.0" encoding="UTF-8"?>
<svg width="44px" height="41px" viewBox="0 0 44 41" version="1.1" xmlns="http://www.w3.org/2000/svg" xmlns:xlink="http://www.w3.org/1999/xlink">
    <!-- Generator: Sketch 46.2 (44496) - http://www.bohemiancoding.com/sketch -->
    <title>2</title>
    <desc>Created with Sketch.</desc>
    <defs></defs>
    <g id="Page-1" stroke="none" stroke-width="1" fill="none" fill-rule="evenodd">
        <g id="2" fill-rule="nonzero">
            <path d="M29.5,29.03 C27.83,29.03 26.233,28.734 24.74,28.214 C24.905,27.339 25,26.439 25,25.516 C25,19.171 20.927,13.791 15.26,11.816 C16.525,5.092 22.414,0 29.5,0 C37.508,0 44,6.5 44,14.516 C44,22.532 37.508,29.03 29.5,29.03 Z M29.502,4.997 C28.0427889,4.99806006 26.6438085,5.57895185 25.6130222,6.61180122 C24.5822359,7.64465059 24.0041424,9.04478967 24.006,10.504 C24.006,13.544 26.466,16.011 29.502,16.011 C32.5402803,16.0087916 35.0016574,13.5442806 35,10.506 C35.0015922,9.04608605 34.4228963,7.64539217 33.3913312,6.61232655 C32.359766,5.57926093 30.9599147,4.99852982 29.5,4.998 L29.502,4.997 Z" id="Shape" fill="#699FF6"></path>
            <path d="M29.5,29.03 C27.83,29.03 26.233,28.73 24.74,28.208 C24.905,27.335 25,26.438 25,25.516 C25,23.106 24.404,20.839 23.367,18.839 C24.1072665,18.3216399 24.9147293,17.9078152 25.767,17.609 C26.9136378,18.2138707 28.1906026,18.5296792 29.487,18.529 C30.7860837,18.530821 32.065911,18.2149838 33.215,17.609 C36.33,18.691 38.872,21.196 39.375,25.121 C36.785,27.539 33.321,29.029 29.5,29.029 L29.5,29.03 Z" id="Shape" fill="#FFFFFF"></path>
            <path d="M10.5,40.03 C6.674,40.03 3.204,38.536 0.612,36.112 C1.119,32.196 3.656,29.695 6.766,28.612 C7.91323612,29.2171868 9.19092606,29.5330049 10.488,29.532 C11.7869134,29.5330416 13.0663876,29.2165202 14.215,28.61 C17.33,29.693 19.872,32.198 20.375,36.123 C17.785,38.541 14.321,40.031 10.5,40.031 L10.5,40.03 Z" id="Shape" fill="#699FF6"></path>
            <path d="M16,21.504 C16.001658,24.5426049 13.5406035,27.007688 10.502,27.011 C7.46450102,27.007688 5.00434198,24.5435003 5.006,21.506 C5.00414244,20.0467897 5.58223587,18.6466506 6.61302217,17.6138012 C7.64380847,16.5809518 9.04278888,16.0000601 10.502,15.999 C13.5402803,16.0012084 16.0016574,18.4657194 16,21.504 L16,21.504 Z" id="Shape" fill="#699FF6"></path>
        </g>
    </g>
</svg>