<?xml version="1.0" encoding="UTF-8"?>
<svg xmlns="http://www.w3.org/2000/svg" width="48" height="48"><path fill="#87BBFD" d="M43.5 20.5a4 4 0 1 1 0-8 4 4 0 0 1 0 8zm-39 15a4 4 0 1 1 0-8 4 4 0 0 1 0 8z"></path><path fill="#4571b7" d="M41 40H7a3 3 0 0 1-3-3v-6.37L17.5 18l13 9L44 14.37V37a3 3 0 0 1-3 3z"></path><path fill="#699ff6" d="M30.5 28.5l-13-9L4 32.13V11a3 3 0 0 1 3-3h34a3 3 0 0 1 3 3v4.87L30.5 28.5z"></path><path fill="#FFF" d="M43.5 19a2.5 2.5 0 1 1 0-5 2.5 2.5 0 0 1 0 5zM30.495 30a2.5 2.5 0 1 1 0-5 2.5 2.5 0 0 1 0 5zm-12.99-7a2.5 2.5 0 1 1 0-5 2.5 2.5 0 0 1 0 5zM4.5 34a2.5 2.5 0 1 1 0-5 2.5 2.5 0 0 1 0 5z"></path></svg>
